<?xml version="1.0" standalone="no"?>
<!DOCTYPE svg PUBLIC "-//W3C//DTD SVG 20010904//EN"
 "http://www.w3.org/TR/2001/REC-SVG-20010904/DTD/svg10.dtd">
<svg version="1.0" xmlns="http://www.w3.org/2000/svg"
 width="1280.000000pt" height="714.000000pt" viewBox="0 0 1280.000000 714.000000"
 preserveAspectRatio="xMidYMid meet">
<metadata>
Created by potrace 1.16, written by Peter Selinger 2001-2019
</metadata>
<g transform="translate(0.000000,714.000000) scale(0.100000,-0.100000)"
fill="#1a1a1a" stroke="none">
<path d="M1197 4612 l-47 -47 232 -233 232 -232 -44 -45 -44 -45 49 -50 49
-50 41 39 c45 45 57 43 107 -13 l27 -31 46 45 c50 49 55 68 25 90 -12 8 -28
26 -37 39 -15 23 -13 26 211 250 156 156 225 232 221 242 -3 9 -25 32 -49 51
l-43 36 -224 -224 c-123 -123 -230 -224 -237 -224 -7 0 -114 101 -236 225
-122 124 -224 225 -227 225 -3 0 -26 -21 -52 -48z"/>
<path d="M747 4542 c-26 -26 -47 -50 -47 -53 0 -3 144 -150 320 -325 176 -175
320 -323 320 -329 0 -5 -35 -45 -78 -88 l-77 -77 -225 225 c-123 124 -226 225
-229 225 -10 0 -91 -84 -91 -95 0 -5 100 -110 222 -232 l223 -223 -223 -223
c-122 -122 -222 -227 -222 -233 0 -6 21 -31 46 -54 l46 -43 227 227 226 226
83 -78 83 -79 -325 -326 c-179 -180 -326 -330 -326 -335 0 -11 84 -92 96 -92
5 0 213 204 463 454 l453 454 453 -454 c248 -250 457 -454 465 -454 18 0 90
72 90 90 0 8 -145 160 -322 337 l-322 323 79 80 c43 44 80 78 81 77 2 -1 105
-103 229 -226 l227 -224 49 49 49 49 -227 227 -228 228 228 228 227 227 -50
50 -50 50 -358 -357 -357 -358 -77 73 c-43 40 -78 78 -78 84 0 7 35 46 77 87
l78 76 35 -35 c20 -19 42 -35 50 -35 8 0 34 19 57 42 l43 42 -42 43 -42 43
129 131 c72 72 217 217 323 322 105 106 192 196 192 201 0 14 -82 96 -95 96
-5 0 -212 -202 -458 -450 -246 -247 -451 -450 -455 -450 -4 0 -212 205 -462
455 l-455 455 -48 -48z m797 -902 l68 -72 -82 -80 -82 -80 -81 81 -81 81 79
80 c60 61 82 77 95 70 9 -5 46 -41 84 -80z"/>
<path d="M12020 4160 c0 -5 9 -10 19 -10 24 0 27 -10 30 -85 3 -75 11 -86 12
-17 1 29 3 57 4 62 1 6 3 17 4 25 1 9 11 15 27 15 14 0 23 4 19 10 -3 6 -31
10 -61 10 -30 0 -54 -4 -54 -10z"/>
<path d="M12170 4084 c0 -54 4 -83 10 -79 6 3 10 21 10 40 0 50 16 51 32 3 8
-23 19 -43 25 -45 5 -2 18 17 27 42 19 48 36 51 36 7 0 -15 5 -34 10 -42 7
-10 10 12 10 73 0 55 -4 87 -11 87 -6 0 -22 -27 -36 -60 -15 -33 -29 -60 -33
-60 -4 0 -18 27 -31 60 -34 87 -49 79 -49 -26z"/>
<path d="M3374 3882 c-78 -28 -129 -73 -166 -150 -31 -62 -33 -74 -33 -167 0
-89 4 -107 29 -163 51 -111 133 -163 267 -170 120 -6 186 14 248 76 45 45 78
107 63 115 -4 3 -39 7 -79 11 -70 7 -72 6 -89 -19 -24 -36 -65 -55 -121 -55
-65 0 -109 28 -134 86 -36 80 -37 79 188 78 109 0 209 2 222 4 23 5 23 7 19
81 -8 130 -69 227 -167 268 -58 24 -186 27 -247 5z m197 -139 c40 -34 67 -92
47 -104 -19 -13 -265 -11 -273 1 -12 20 34 96 68 113 53 26 120 22 158 -10z"/>
<path d="M4163 3887 c-18 -7 -48 -27 -67 -44 -20 -18 -38 -33 -41 -33 -3 0 -5
18 -5 40 l0 40 -80 0 -80 0 0 -325 0 -325 85 0 85 0 0 205 c0 231 6 261 62
295 65 40 136 21 168 -45 18 -37 20 -61 20 -248 l0 -207 85 0 85 0 0 228 c0
268 -7 307 -71 371 -23 22 -57 45 -77 51 -49 13 -129 12 -169 -3z"/>
<path d="M4757 3886 c-60 -22 -114 -75 -150 -146 -19 -39 -22 -61 -22 -170 0
-116 2 -129 27 -176 33 -63 95 -119 145 -133 91 -26 184 -9 240 42 13 11 26
17 30 14 11 -12 3 -119 -12 -147 -16 -30 -78 -60 -126 -60 -42 0 -95 24 -113
53 -15 23 -19 23 -79 15 -112 -16 -109 -14 -93 -47 43 -82 106 -123 218 -141
123 -19 249 13 316 79 58 59 62 88 62 473 l0 348 -80 0 -80 0 0 -42 0 -42 -38
37 c-21 21 -54 42 -73 47 -47 14 -127 12 -172 -4z m197 -139 c58 -33 81 -84
81 -178 -1 -112 -45 -174 -133 -186 -88 -12 -152 68 -152 189 0 96 30 156 91
182 47 21 68 19 113 -7z"/>
<path d="M5583 3883 c-18 -10 -43 -33 -56 -50 -28 -38 -37 -34 -37 19 l0 38
-80 0 -80 0 0 -325 0 -325 85 0 85 0 0 193 c0 180 1 196 23 237 27 56 64 75
138 74 l56 -1 -1 76 -1 76 -50 3 c-34 2 -61 -3 -82 -15z"/>
<path d="M5937 3886 c-63 -17 -116 -61 -146 -119 -13 -26 -21 -50 -19 -52 3
-3 25 -7 49 -10 24 -3 58 -8 74 -10 25 -4 33 0 47 25 22 38 79 64 125 55 36
-6 81 -41 84 -65 6 -58 -6 -66 -151 -85 -185 -24 -250 -76 -250 -199 0 -30 5
-67 11 -83 27 -71 100 -112 199 -113 84 0 128 13 167 50 18 16 34 30 37 30 3
0 6 -15 8 -32 l3 -33 80 -3 80 -3 -3 228 c-4 274 -12 314 -74 368 -23 19 -65
42 -92 50 -60 18 -164 18 -229 1z m218 -366 c8 -25 -4 -89 -23 -118 -31 -47
-118 -67 -176 -41 -36 17 -51 60 -34 96 16 34 47 50 135 67 92 19 91 19 98 -4z"/>
<path d="M6697 3881 c-21 -11 -48 -32 -60 -47 l-22 -29 -5 40 -5 40 -77 3 -78
3 0 -326 0 -326 83 3 82 3 5 220 c5 230 9 249 52 279 33 23 103 21 128 -4 36
-36 40 -66 40 -286 l0 -214 84 0 85 0 3 231 3 231 33 29 c61 55 150 30 172
-49 5 -20 10 -128 10 -240 l0 -203 83 3 82 3 0 235 c0 129 -4 252 -8 273 -10
45 -69 115 -114 134 -46 19 -140 16 -189 -6 -22 -10 -54 -33 -71 -51 l-31 -33
-33 38 c-19 21 -48 44 -66 51 -48 20 -142 18 -186 -5z"/>
<path d="M7740 3884 c-19 -8 -45 -24 -57 -36 -25 -24 -43 -17 -43 18 0 23 -3
24 -60 24 l-60 0 3 -322 2 -323 60 0 60 0 5 225 c4 190 8 230 23 257 50 92
184 94 229 3 16 -30 18 -66 18 -262 l0 -228 59 0 60 0 3 228 c3 257 9 280 81
316 41 20 107 16 138 -7 44 -33 49 -65 49 -307 l0 -230 60 0 60 0 0 253 c0
224 -2 256 -19 292 -36 79 -101 115 -204 115 -61 0 -111 -21 -153 -65 l-33
-36 -28 32 c-56 64 -172 88 -253 53z"/>
<path d="M8738 3884 c-64 -19 -146 -101 -171 -169 -49 -133 -26 -298 54 -389
68 -77 105 -91 234 -91 94 0 116 3 151 22 67 36 131 121 107 143 -4 5 -30 12
-58 15 -48 6 -51 5 -67 -25 -36 -64 -167 -81 -242 -29 -41 27 -76 90 -76 137
l0 32 236 0 237 0 -7 73 c-10 108 -32 163 -86 218 -74 74 -196 99 -312 63z
m199 -110 c43 -32 65 -70 67 -111 l1 -38 -167 -3 c-164 -2 -168 -2 -168 18 0
54 47 119 105 146 41 20 129 13 162 -12z"/>
<path d="M9476 3890 c-16 -5 -47 -26 -68 -47 -22 -21 -39 -33 -38 -28 2 6 2
25 1 43 l-1 32 -60 0 -60 0 0 -325 0 -325 59 0 60 0 3 228 c3 215 4 229 25
263 41 65 130 86 190 44 47 -33 53 -67 53 -309 l0 -226 60 0 60 0 0 213 c0
116 5 229 10 249 30 105 177 129 237 39 22 -33 23 -41 23 -267 l0 -234 61 0
60 0 -3 264 -3 264 -30 44 c-73 104 -237 120 -334 32 -21 -19 -42 -34 -47 -34
-5 0 -21 16 -37 35 -40 50 -137 70 -221 45z"/>
<path d="M10458 3885 c-66 -21 -139 -95 -169 -170 -33 -85 -33 -215 0 -302 28
-74 93 -140 163 -168 72 -27 209 -18 270 18 83 48 133 128 148 238 10 71 -3
175 -29 233 -22 50 -82 111 -136 139 -52 27 -180 33 -247 12z m211 -123 c46
-38 72 -90 78 -161 8 -82 -3 -141 -35 -190 -68 -105 -221 -106 -286 -2 -54 85
-54 234 0 312 57 82 169 101 243 41z"/>
<path d="M11201 3885 c-18 -8 -42 -26 -53 -40 -29 -37 -48 -32 -48 10 l0 36
-57 -3 -58 -3 0 -320 0 -320 60 0 60 0 5 220 c4 183 8 225 22 251 23 43 94 77
150 72 l43 -3 3 58 3 57 -48 0 c-26 -1 -63 -7 -82 -15z"/>
<path d="M11380 3882 c0 -9 111 -305 197 -525 42 -110 45 -122 34 -157 -6 -21
-24 -52 -40 -69 -24 -26 -37 -31 -74 -31 -25 0 -48 -3 -50 -7 -3 -5 -8 -29
-12 -55 l-7 -48 68 0 c84 0 145 27 179 79 24 36 60 127 215 546 44 121 85 230
90 243 6 13 10 25 10 27 0 3 -29 5 -64 5 l-64 0 -35 -102 c-20 -57 -54 -155
-76 -218 -52 -153 -55 -159 -65 -160 -9 -1 -55 120 -143 378 l-35 102 -64 0
c-35 0 -64 -4 -64 -8z"/>
<path d="M1595 3202 c-17 -15 -39 -37 -50 -50 -19 -23 -19 -23 23 -65 l42 -43
-231 -233 -231 -234 51 -51 51 -51 230 235 230 234 233 -232 232 -232 50 50
50 50 -229 229 c-164 164 -226 233 -220 242 4 8 21 24 36 37 15 13 28 32 28
41 0 18 -71 91 -88 91 -5 0 -19 -12 -33 -26 -42 -46 -59 -47 -104 -4 l-40 39
-30 -27z"/>
</g>
</svg>
